<svg version="1.1" xmlns="http://www.w3.org/2000/svg" viewBox="0 0 1262.2940315014678 751.0503660703272" width="1262.2940315014678" height="751.0503660703272">
  <!-- svg-source:excalidraw -->
  
  <defs>
    <style class="style-fonts">
      @font-face {
        font-family: "Virgil";
        src: url("https://excalidraw.com/Virgil.woff2");
      }
      @font-face {
        font-family: "Cascadia";
        src: url("https://excalidraw.com/Cascadia.woff2");
      }
    </style>
  </defs>
  <g stroke-linecap="round"><g transform="translate(504.482610315129 721.9003972493257) rotate(0 -4.605299363340919 -78.22678195382582)" fill-rule="evenodd"><path d="M0 0 L-14.77 8.88 L-24.09 11.84 L-34.34 13.62 L-45.55 14.04 L-56.62 13.11 L-66.15 10.77 L-74.98 6.93 L-83.94 1.19 L-91.64 -5.6 L-98.33 -17.73 L-100.83 -20.62 L-103.26 -16.83 L-115.35 -12.13 L-128.87 -11.93 L-136.49 -13.83 L-143.38 -16.43 L-151.03 -21.76 L-156.92 -29.69 L-158.17 -34.29 L-157.26 -38.8 L-158.43 -36.57 L-161.61 -33.83 L-168.41 -33.25 L-176.79 -34.21 L-185.74 -37.21 L-193.8 -41.47 L-198.76 -46.49 L-201.85 -51.95 L-204.03 -62.84 L-202.19 -71.71 L-195.47 -79 L-189.14 -84.43 L-178.9 -88.31 L-167.68 -88.98 L-161.53 -86.43 L-165.29 -91.79 L-164.85 -97.6 L-163.09 -104.31 L-156.36 -116.89 L-145.85 -128.67 L-132.61 -135.52 L-118.88 -138.57 L-100.79 -138.82 L-87.52 -136.17 L-81.11 -133.66 L-75.75 -130.77 L-70.81 -125.12 L-70.8 -130.64 L-65.28 -140.27 L-54.21 -151.13 L-43.23 -159.7 L-29.42 -167.23 L-22.44 -170.01 L-3.56 -174.38 L8.09 -175.59 L29.82 -173.26 L50.97 -167.56 L61 -162.6 L74.75 -153.72 L86.82 -142.22 L88.86 -134.85 L93.27 -138.29 L106.36 -140.88 L122.14 -139.84 L135.78 -134.26 L142.62 -130.02 L148.51 -124.94 L152.14 -118.72 L156.39 -104.63 L154.58 -92.74 L157.89 -96.08 L161.63 -96.3 L166.59 -95.51 L179.71 -90.78 L189.57 -82.35 L192.77 -76.5 L194.59 -70.28 L194.62 -64.28 L193.34 -58.83 L187.85 -51.25 L183.02 -46.92 L177.72 -46.84 L185.44 -43.68 L190.68 -39.01 L191.47 -34.92 L190.97 -30.51 L188.91 -26.54 L186.01 -23.25 L179.53 -20.1 L171.99 -19.57 L165.51 -20.87 L157.36 -27.9 L159.67 -21.95 L158.18 -17.75 L153.79 -8.83 L145.68 1.47 L137.92 7.96 L129.4 12.71 L119.7 16.93 L111.13 18.73 L102.47 19.15 L83.58 17.07 L73.88 14.66 L65.3 11.31 L55.32 1.72 L54.77 1.85 L54.8 6.32 L50.03 9.28 L43.58 11.9 L29.69 13.85 L16.58 11.86 L9.62 8.81 L3.81 5.35 L0 0" stroke="none" stroke-width="0" fill="#4c6ef5" fill-rule="evenodd"></path><path d="M0 0 C-2.46 1.48, -9.05 6.61, -14.77 8.88 C-20.49 11.15, -27.37 12.91, -34.34 13.62 C-41.31 14.32, -49.84 14.22, -56.62 13.11 C-63.39 11.99, -69.14 10.05, -74.98 6.93 C-80.82 3.82, -87.5 -1.08, -91.64 -5.6 C-95.78 -10.11, -97.91 -18.29, -99.84 -20.16 C-101.78 -22.04, -100.67 -18.17, -103.26 -16.83 C-105.84 -15.49, -111.08 -12.95, -115.35 -12.13 C-119.62 -11.31, -124.2 -11.21, -128.87 -11.93 C-133.54 -12.64, -139.69 -14.79, -143.38 -16.43 C-147.08 -18.07, -148.78 -19.55, -151.03 -21.76 C-153.29 -23.97, -155.74 -27.61, -156.92 -29.69 C-158.11 -31.78, -158.12 -32.77, -158.17 -34.29 C-158.23 -35.81, -156.69 -38.87, -157.26 -38.8 C-157.83 -38.72, -158.36 -34.59, -161.61 -33.83 C-164.87 -33.06, -171.42 -32.93, -176.79 -34.21 C-182.15 -35.48, -189.63 -38.52, -193.8 -41.47 C-197.98 -44.43, -200.15 -48.39, -201.85 -51.95 C-203.56 -55.51, -203.97 -59.55, -204.03 -62.84 C-204.08 -66.13, -203.62 -69.02, -202.19 -71.71 C-200.77 -74.41, -197.64 -76.88, -195.47 -79 C-193.29 -81.12, -191.9 -82.88, -189.14 -84.43 C-186.38 -85.98, -182.47 -87.56, -178.9 -88.31 C-175.32 -89.07, -170.57 -89.3, -167.68 -88.98 C-164.78 -88.67, -161.93 -85.97, -161.53 -86.43 C-161.14 -86.9, -165.03 -88.81, -165.29 -91.79 C-165.55 -94.77, -164.58 -100.12, -163.09 -104.31 C-161.6 -108.49, -159.23 -112.83, -156.36 -116.89 C-153.49 -120.95, -149.81 -125.56, -145.85 -128.67 C-141.89 -131.78, -137.11 -133.87, -132.61 -135.52 C-128.12 -137.17, -124.18 -138.02, -118.88 -138.57 C-113.58 -139.12, -106.02 -139.22, -100.79 -138.82 C-95.56 -138.42, -91.69 -137.51, -87.52 -136.17 C-83.34 -134.83, -78.53 -132.61, -75.75 -130.77 C-72.97 -128.93, -71.64 -125.14, -70.81 -125.12 C-69.99 -125.09, -71.72 -128.12, -70.8 -130.64 C-69.88 -133.17, -68.05 -136.86, -65.28 -140.27 C-62.52 -143.69, -57.89 -147.89, -54.21 -151.13 C-50.53 -154.36, -47.36 -157.01, -43.23 -159.7 C-39.09 -162.38, -34.23 -165.14, -29.42 -167.23 C-24.61 -169.33, -20.62 -170.86, -14.37 -172.25 C-8.12 -173.64, 0.72 -175.42, 8.09 -175.59 C15.45 -175.76, 22.67 -174.6, 29.82 -173.26 C36.97 -171.93, 44.35 -170.19, 50.97 -167.56 C57.59 -164.92, 64.91 -160.35, 69.52 -157.46 C74.14 -154.58, 75.79 -152.78, 78.67 -150.24 C81.55 -147.7, 85.12 -144.78, 86.82 -142.22 C88.51 -139.66, 87.78 -135.51, 88.86 -134.85 C89.93 -134.2, 90.36 -137.29, 93.27 -138.29 C96.19 -139.3, 101.54 -140.62, 106.36 -140.88 C111.17 -141.14, 117.23 -140.94, 122.14 -139.84 C127.04 -138.73, 131.38 -136.74, 135.78 -134.26 C140.17 -131.77, 145.4 -128.54, 148.51 -124.94 C151.62 -121.34, 153.11 -116.05, 154.43 -112.66 C155.74 -109.28, 156.37 -107.95, 156.39 -104.63 C156.42 -101.31, 154.33 -94.16, 154.58 -92.74 C154.83 -91.31, 155.89 -95.62, 157.89 -96.08 C159.89 -96.55, 162.96 -96.39, 166.59 -95.51 C170.23 -94.63, 175.88 -92.98, 179.71 -90.78 C183.54 -88.59, 187.09 -85.77, 189.57 -82.35 C192.05 -78.93, 193.96 -74.2, 194.59 -70.28 C195.22 -66.36, 194.47 -62.01, 193.34 -58.83 C192.22 -55.66, 189.57 -53.23, 187.85 -51.25 C186.13 -49.26, 184.71 -47.66, 183.02 -46.92 C181.34 -46.19, 177.31 -47.38, 177.72 -46.84 C178.12 -46.3, 183.28 -44.99, 185.44 -43.68 C187.6 -42.38, 189.76 -41.21, 190.68 -39.01 C191.61 -36.82, 191.75 -33.14, 190.97 -30.51 C190.19 -27.88, 187.91 -24.98, 186.01 -23.25 C184.1 -21.51, 181.87 -20.71, 179.53 -20.1 C177.2 -19.48, 174.33 -19.44, 171.99 -19.57 C169.66 -19.7, 167.95 -19.48, 165.51 -20.87 C163.07 -22.26, 158.33 -27.72, 157.36 -27.9 C156.39 -28.08, 159.88 -24.31, 159.67 -21.95 C159.46 -19.58, 157.1 -15.87, 156.12 -13.69 C155.14 -11.5, 155.53 -11.36, 153.79 -8.83 C152.05 -6.3, 148.32 -1.33, 145.68 1.47 C143.03 4.27, 142.25 5.39, 137.92 7.96 C133.59 10.54, 125.61 15.06, 119.7 16.93 C113.79 18.79, 108.49 19.13, 102.47 19.15 C96.45 19.17, 89.77 18.37, 83.58 17.07 C77.38 15.76, 70.01 13.87, 65.3 11.31 C60.59 8.75, 57.07 2.55, 55.32 1.72 C53.57 0.89, 56.76 4.63, 54.8 6.32 C52.85 8.02, 47.77 10.64, 43.58 11.9 C39.4 13.15, 34.19 13.86, 29.69 13.85 C25.19 13.85, 20.89 13.28, 16.58 11.86 C12.27 10.45, 6.58 7.32, 3.81 5.35 C1.05 3.37, 0.64 0.89, 0 0 M0 0 C-2.46 1.48, -9.05 6.61, -14.77 8.88 C-20.49 11.15, -27.37 12.91, -34.34 13.62 C-41.31 14.32, -49.84 14.22, -56.62 13.11 C-63.39 11.99, -69.14 10.05, -74.98 6.93 C-80.82 3.82, -87.5 -1.08, -91.64 -5.6 C-95.78 -10.11, -97.91 -18.29, -99.84 -20.16 C-101.78 -22.04, -100.67 -18.17, -103.26 -16.83 C-105.84 -15.49, -111.08 -12.95, -115.35 -12.13 C-119.62 -11.31, -124.2 -11.21, -128.87 -11.93 C-133.54 -12.64, -139.69 -14.79, -143.38 -16.43 C-147.08 -18.07, -148.78 -19.55, -151.03 -21.76 C-153.29 -23.97, -155.74 -27.61, -156.92 -29.69 C-158.11 -31.78, -158.12 -32.77, -158.17 -34.29 C-158.23 -35.81, -156.69 -38.87, -157.26 -38.8 C-157.83 -38.72, -158.36 -34.59, -161.61 -33.83 C-164.87 -33.06, -171.42 -32.93, -176.79 -34.21 C-182.15 -35.48, -189.63 -38.52, -193.8 -41.47 C-197.98 -44.43, -200.15 -48.39, -201.85 -51.95 C-203.56 -55.51, -203.97 -59.55, -204.03 -62.84 C-204.08 -66.13, -203.62 -69.02, -202.19 -71.71 C-200.77 -74.41, -197.64 -76.88, -195.47 -79 C-193.29 -81.12, -191.9 -82.88, -189.14 -84.43 C-186.38 -85.98, -182.47 -87.56, -178.9 -88.31 C-175.32 -89.07, -170.57 -89.3, -167.68 -88.98 C-164.78 -88.67, -161.93 -85.97, -161.53 -86.43 C-161.14 -86.9, -165.03 -88.81, -165.29 -91.79 C-165.55 -94.77, -164.58 -100.12, -163.09 -104.31 C-161.6 -108.49, -159.23 -112.83, -156.36 -116.89 C-153.49 -120.95, -149.81 -125.56, -145.85 -128.67 C-141.89 -131.78, -137.11 -133.87, -132.61 -135.52 C-128.12 -137.17, -124.18 -138.02, -118.88 -138.57 C-113.58 -139.12, -106.02 -139.22, -100.79 -138.82 C-95.56 -138.42, -91.69 -137.51, -87.52 -136.17 C-83.34 -134.83, -78.53 -132.61, -75.75 -130.77 C-72.97 -128.93, -71.64 -125.14, -70.81 -125.12 C-69.99 -125.09, -71.72 -128.12, -70.8 -130.64 C-69.88 -133.17, -68.05 -136.86, -65.28 -140.27 C-62.52 -143.69, -57.89 -147.89, -54.21 -151.13 C-50.53 -154.36, -47.36 -157.01, -43.23 -159.7 C-39.09 -162.38, -34.23 -165.14, -29.42 -167.23 C-24.61 -169.33, -20.62 -170.86, -14.37 -172.25 C-8.12 -173.64, 0.72 -175.42, 8.09 -175.59 C15.45 -175.76, 22.67 -174.6, 29.82 -173.26 C36.97 -171.93, 44.35 -170.19, 50.97 -167.56 C57.59 -164.92, 64.91 -160.35, 69.52 -157.46 C74.14 -154.58, 75.79 -152.78, 78.67 -150.24 C81.55 -147.7, 85.12 -144.78, 86.82 -142.22 C88.51 -139.66, 87.78 -135.51, 88.86 -134.85 C89.93 -134.2, 90.36 -137.29, 93.27 -138.29 C96.19 -139.3, 101.54 -140.62, 106.36 -140.88 C111.17 -141.14, 117.23 -140.94, 122.14 -139.84 C127.04 -138.73, 131.38 -136.74, 135.78 -134.26 C140.17 -131.77, 145.4 -128.54, 148.51 -124.94 C151.62 -121.34, 153.11 -116.05, 154.43 -112.66 C155.74 -109.28, 156.37 -107.95, 156.39 -104.63 C156.42 -101.31, 154.33 -94.16, 154.58 -92.74 C154.83 -91.31, 155.89 -95.62, 157.89 -96.08 C159.89 -96.55, 162.96 -96.39, 166.59 -95.51 C170.23 -94.63, 175.88 -92.98, 179.71 -90.78 C183.54 -88.59, 187.09 -85.77, 189.57 -82.35 C192.05 -78.93, 193.96 -74.2, 194.59 -70.28 C195.22 -66.36, 194.47 -62.01, 193.34 -58.83 C192.22 -55.66, 189.57 -53.23, 187.85 -51.25 C186.13 -49.26, 184.71 -47.66, 183.02 -46.92 C181.34 -46.19, 177.31 -47.38, 177.72 -46.84 C178.12 -46.3, 183.28 -44.99, 185.44 -43.68 C187.6 -42.38, 189.76 -41.21, 190.68 -39.01 C191.61 -36.82, 191.75 -33.14, 190.97 -30.51 C190.19 -27.88, 187.91 -24.98, 186.01 -23.25 C184.1 -21.51, 181.87 -20.71, 179.53 -20.1 C177.2 -19.48, 174.33 -19.44, 171.99 -19.57 C169.66 -19.7, 167.95 -19.48, 165.51 -20.87 C163.07 -22.26, 158.33 -27.72, 157.36 -27.9 C156.39 -28.08, 159.88 -24.31, 159.67 -21.95 C159.46 -19.58, 157.1 -15.87, 156.12 -13.69 C155.14 -11.5, 155.53 -11.36, 153.79 -8.83 C152.05 -6.3, 148.32 -1.33, 145.68 1.47 C143.03 4.27, 142.25 5.39, 137.92 7.96 C133.59 10.54, 125.61 15.06, 119.7 16.93 C113.79 18.79, 108.49 19.13, 102.47 19.15 C96.45 19.17, 89.77 18.37, 83.58 17.07 C77.38 15.76, 70.01 13.87, 65.3 11.31 C60.59 8.75, 57.07 2.55, 55.32 1.72 C53.57 0.89, 56.76 4.63, 54.8 6.32 C52.85 8.02, 47.77 10.64, 43.58 11.9 C39.4 13.15, 34.19 13.86, 29.69 13.85 C25.19 13.85, 20.89 13.28, 16.58 11.86 C12.27 10.45, 6.58 7.32, 3.81 5.35 C1.05 3.37, 0.64 0.89, 0 0" stroke="transparent" stroke-width="4" fill="none"></path></g></g><mask></mask><g transform="translate(13.965564962240933 208.44811854497289) rotate(0 31.275985717773438 16.80000000000001)"><text x="0" y="0" font-family="Virgil, Segoe UI Emoji" font-size="28px" fill="#000000" text-anchor="start" style="white-space: pre;" direction="ltr" dominant-baseline="text-before-edge">User</text></g><g stroke-linecap="round"><g transform="translate(10 193.72967121883926) rotate(0 36.73533360477751 -31.010197070062702)" fill-rule="evenodd"><path d="M12.72 -48.57 C12.72 -48.57, 12.72 -48.57, 12.72 -48.57 M12.72 -48.57 C12.72 -48.57, 12.72 -48.57, 12.72 -48.57 M6.95 -29.74 C13.91 -37.74, 20.86 -45.75, 34.5 -61.43 M6.95 -29.74 C16.05 -40.21, 25.16 -50.68, 34.5 -61.43 M4.46 -14.68 C19.14 -31.57, 33.83 -48.47, 43.16 -59.2 M4.46 -14.68 C19.82 -32.35, 35.19 -50.03, 43.16 -59.2 M1.31 1.14 C13.47 -12.85, 25.64 -26.85, 50.51 -55.47 M1.31 1.14 C13.31 -12.67, 25.31 -26.47, 50.51 -55.47 M11.94 1.1 C22.85 -11.45, 33.77 -24.01, 56.55 -50.22 M11.94 1.1 C23.54 -12.24, 35.14 -25.59, 56.55 -50.22 M22.57 1.07 C36.58 -15.04, 50.58 -31.15, 61.93 -44.21 M22.57 1.07 C37.34 -15.93, 52.12 -32.92, 61.93 -44.21 M32.54 1.79 C39.52 -6.24, 46.5 -14.27, 65.35 -35.95 M32.54 1.79 C44.27 -11.7, 55.99 -25.18, 65.35 -35.95 M40.55 4.77 C47.73 -3.49, 54.92 -11.76, 69.42 -28.43 M40.55 4.77 C46.57 -2.15, 52.59 -9.07, 69.42 -28.43 M51.84 3.98 C59.69 -5.05, 67.54 -14.08, 74.14 -21.68 M51.84 3.98 C57.69 -2.75, 63.55 -9.49, 74.14 -21.68 M66.4 -0.58 C67.83 -2.22, 69.25 -3.86, 72.96 -8.13 M66.4 -0.58 C68.91 -3.46, 71.41 -6.34, 72.96 -8.13 M0 0 C0 0, 0 0, 0 0 M0 0 C0 0, 0 0, 0 0 M12.04 -0.13 C9.16 -2.63, 6.29 -5.13, 1.47 -9.32 M12.04 -0.13 C7.93 -3.7, 3.83 -7.27, 1.47 -9.32 M24.84 0.39 C18.97 -4.71, 13.1 -9.81, 2.95 -18.64 M24.84 0.39 C20.14 -3.69, 15.45 -7.77, 2.95 -18.64 M36.12 -0.4 C28.17 -7.31, 20.22 -14.22, 3.67 -28.61 M36.12 -0.4 C27.15 -8.2, 18.18 -16, 3.67 -28.61 M48.16 -0.53 C34.85 -12.11, 21.53 -23.68, 8.16 -35.3 M48.16 -0.53 C34.89 -12.07, 21.61 -23.62, 8.16 -35.3 M57.94 -2.63 C44.26 -14.52, 30.59 -26.41, 10.39 -43.97 M57.94 -2.63 C41.39 -17.02, 24.84 -31.4, 10.39 -43.97 M67.72 -4.74 C49.51 -20.56, 31.3 -36.39, 14.89 -50.66 M67.72 -4.74 C46.66 -23.04, 25.61 -41.34, 14.89 -50.66 M74.47 -9.46 C54.26 -27.03, 34.04 -44.61, 20.14 -56.7 M74.47 -9.46 C60.32 -21.76, 46.17 -34.07, 20.14 -56.7 M77.46 -17.47 C61.36 -31.46, 45.26 -45.46, 27.65 -60.77 M77.46 -17.47 C61.95 -30.95, 46.44 -44.43, 27.65 -60.77 M66.1 -37.94 C54.02 -48.45, 41.93 -58.95, 35.16 -64.84 M66.1 -37.94 C56.03 -46.7, 45.95 -55.46, 35.16 -64.84" stroke="#ced4da" stroke-width="1" fill="none"></path><path d="M0 0 C1.31 -6.89, 2.24 -30.96, 7.85 -41.36 C13.46 -51.77, 25.05 -61.67, 33.65 -62.42 C42.25 -63.17, 53.37 -55.56, 59.44 -45.88 C65.52 -36.19, 80.01 -11.94, 70.1 -4.3 C60.19 3.35, 11.68 -0.72, 0 0 M0 0 C1.31 -6.89, 2.24 -30.96, 7.85 -41.36 C13.46 -51.77, 25.05 -61.67, 33.65 -62.42 C42.25 -63.17, 53.37 -55.56, 59.44 -45.88 C65.52 -36.19, 80.01 -11.94, 70.1 -4.3 C60.19 3.35, 11.68 -0.72, 0 0" stroke="#000000" stroke-width="2" fill="none"></path></g></g><mask></mask><g stroke-linecap="round" transform="translate(27.718953775409773 98.84386354646512) rotate(0 17.945317205254298 15.702152554597546)"><path d="M4.51 5.25 C4.51 5.25, 4.51 5.25, 4.51 5.25 M4.51 5.25 C4.51 5.25, 4.51 5.25, 4.51 5.25 M1.37 21.06 C8.44 12.93, 15.51 4.79, 19.08 0.68 M1.37 21.06 C5.84 15.92, 10.31 10.77, 19.08 0.68 M6.09 27.82 C13.24 19.59, 20.4 11.36, 27.74 2.91 M6.09 27.82 C14.31 18.37, 22.52 8.92, 27.74 2.91 M13.44 31.56 C21.51 22.27, 29.59 12.98, 33.78 8.16 M13.44 31.56 C18.47 25.78, 23.5 19.99, 33.78 8.16 M24.73 30.77 C27.77 27.27, 30.81 23.78, 37.19 16.43 M24.73 30.77 C27.78 27.26, 30.83 23.75, 37.19 16.43 M6.39 27.71 C6.39 27.71, 6.39 27.71, 6.39 27.71 M6.39 27.71 C6.39 27.71, 6.39 27.71, 6.39 27.71 M21.45 30.2 C13.8 23.55, 6.15 16.9, 1.07 12.49 M21.45 30.2 C17.11 26.43, 12.78 22.66, 1.07 12.49 M29.71 26.79 C20.81 19.05, 11.91 11.31, 4.81 5.14 M29.71 26.79 C23.52 21.4, 17.32 16.01, 4.81 5.14 M34.96 20.75 C30.24 16.65, 25.52 12.54, 12.32 1.07 M34.96 20.75 C26.99 13.82, 19.02 6.9, 12.32 1.07 M34.93 10.12 C32.15 7.71, 29.38 5.3, 24.36 0.94 M34.93 10.12 C32.63 8.12, 30.34 6.13, 24.36 0.94" stroke="#ced4da" stroke-width="1" fill="none"></path><path d="M35.89 15.7 C35.89 16.61, 35.8 17.53, 35.62 18.43 C35.44 19.32, 35.16 20.22, 34.81 21.07 C34.45 21.93, 34.01 22.77, 33.49 23.55 C32.97 24.34, 32.36 25.1, 31.69 25.8 C31.02 26.49, 30.28 27.15, 29.48 27.73 C28.68 28.31, 27.82 28.85, 26.92 29.3 C26.02 29.76, 25.06 30.15, 24.08 30.46 C23.11 30.77, 22.08 31.01, 21.06 31.17 C20.04 31.32, 18.98 31.4, 17.95 31.4 C16.91 31.4, 15.85 31.32, 14.83 31.17 C13.81 31.01, 12.78 30.77, 11.81 30.46 C10.83 30.15, 9.87 29.76, 8.97 29.3 C8.07 28.85, 7.21 28.31, 6.41 27.73 C5.61 27.15, 4.87 26.49, 4.2 25.8 C3.53 25.1, 2.92 24.34, 2.4 23.55 C1.88 22.77, 1.44 21.93, 1.08 21.07 C0.73 20.22, 0.45 19.32, 0.27 18.43 C0.09 17.53, 0 16.61, 0 15.7 C0 14.79, 0.09 13.87, 0.27 12.98 C0.45 12.08, 0.73 11.19, 1.08 10.33 C1.44 9.48, 1.88 8.64, 2.4 7.85 C2.92 7.06, 3.53 6.31, 4.2 5.61 C4.87 4.91, 5.61 4.26, 6.41 3.67 C7.21 3.09, 8.07 2.56, 8.97 2.1 C9.87 1.65, 10.83 1.26, 11.81 0.95 C12.78 0.64, 13.81 0.4, 14.83 0.24 C15.85 0.08, 16.91 0, 17.95 0 C18.98 0, 20.04 0.08, 21.06 0.24 C22.08 0.4, 23.11 0.64, 24.08 0.95 C25.06 1.26, 26.02 1.65, 26.92 2.1 C27.82 2.56, 28.68 3.09, 29.48 3.67 C30.28 4.26, 31.02 4.91, 31.69 5.61 C32.36 6.31, 32.97 7.06, 33.49 7.85 C34.01 8.64, 34.45 9.48, 34.81 10.33 C35.16 11.19, 35.44 12.08, 35.62 12.98 C35.8 13.87, 35.85 15.25, 35.89 15.7 C35.94 16.16, 35.94 15.25, 35.89 15.7" stroke="#000000" stroke-width="2" fill="none"></path></g><g stroke-linecap="round" transform="translate(416.70495157523646 18.937412581954163) rotate(0 203.5 144)"><path d="M32 0 M32 0 C152.6 0, 273.2 0, 375 0 M32 0 C135.11 0, 238.22 0, 375 0 M375 0 C396.33 0, 407 10.67, 407 32 M375 0 C396.33 0, 407 10.67, 407 32 M407 32 C407 111.32, 407 190.64, 407 256 M407 32 C407 111.03, 407 190.05, 407 256 M407 256 C407 277.33, 396.33 288, 375 288 M407 256 C407 277.33, 396.33 288, 375 288 M375 288 C264.73 288, 154.46 288, 32 288 M375 288 C282.54 288, 190.09 288, 32 288 M32 288 C10.67 288, 0 277.33, 0 256 M32 288 C10.67 288, 0 277.33, 0 256 M0 256 C0 177.76, 0 99.51, 0 32 M0 256 C0 168.09, 0 80.18, 0 32 M0 32 C0 10.67, 10.67 0, 32 0 M0 32 C0 10.67, 10.67 0, 32 0" stroke="#000000" stroke-width="1" fill="none"></path></g><g transform="translate(409.33000613287345 613.187997695731) rotate(0 103.04318237304688 31.19999999999999)"><text x="0" y="0" font-family="Helvetica, Segoe UI Emoji" font-size="52.977323449678586px" fill="#000000" text-anchor="start" style="white-space: pre;" direction="ltr" dominant-baseline="text-before-edge">Arweave</text></g><g stroke-linecap="round" transform="translate(1151.5480555403094 114.47261698058537) rotate(0 50.37298798057918 76.4382101789036)"><path d="M-0.88 0.59 L102.1 0.51 L98.85 151.94 L-1.99 152.78" stroke="none" stroke-width="0" fill="#fff"></path><path d="M-1.64 -1.39 C37.85 -2.1, 76.55 -1.81, 101.86 0.49 M-0.14 -0.5 C34.22 -1.7, 68.65 0.17, 100 0.1 M102.72 0.05 C101.93 51.77, 101.34 101.59, 101.77 150.95 M99.78 -0.94 C100.76 57.16, 101.03 115.25, 100.15 151.92 M99.08 153.8 C76.63 153.5, 54.72 150.66, -1.88 152.3 M100.09 153.19 C64.05 152.62, 24.95 152.96, -0.61 153.8 M1.78 153.18 C-1.98 95.92, 1.62 36.9, 1.23 0.05 M-0.73 153.81 C-0.27 96.85, 0.02 38.73, -0.31 -0.28" stroke="#000000" stroke-width="2" fill="none"></path></g><g stroke-linecap="round" transform="translate(1140.789866853608 104.46610949971989) rotate(0 50.37298798057918 76.43821017890355)"><path d="M0.59 1.35 L101.25 -1.9 L99.81 150.89 L-0.1 152.01" stroke="none" stroke-width="0" fill="#fff"></path><path d="M-1.39 -1.25 C33.74 -0.82, 68.91 1.94, 101.24 0.86 M-0.5 -0.34 C35.39 -0.33, 73.61 -0.61, 100.85 0.3 M100.8 1.03 C102.41 47.88, 101.79 95.9, 98.82 154.42 M99.81 0.41 C100.92 42.56, 101.37 83.17, 99.79 152.16 M101.67 151.81 C73.07 152.11, 41.49 150.16, -0.58 154.35 M101.06 153.8 C66.63 151.66, 32.44 151.6, 0.92 153.72 M0.3 150.94 C1.93 108.17, 1.68 61.35, 0.05 1.42 M0.93 152.52 C-0.18 107.84, -1.55 62.64, -0.28 -0.44" stroke="#000000" stroke-width="2" fill="none"></path></g><g stroke-linecap="round" transform="translate(1127.3980099420125 92.70090662615257) rotate(0 50.37298798057918 76.4382101789036)"><path d="M1.35 0.51 L98.85 -0.93 L98.76 152.78 L-0.86 151.45" stroke="none" stroke-width="0" fill="#fff"></path><path d="M-1.25 -1.15 C38.01 -0.16, 80.44 1.19, 101.61 1.22 M-0.34 -0.97 C37.06 1.41, 74.32 0.6, 101.04 0.1 M101.78 1.33 C102.7 49.84, 103.28 96.31, 102.29 152.36 M101.16 -0.48 C99.95 52.32, 98.68 103.73, 100.03 152.73 M99.68 153.93 C74.92 151.55, 47.08 152.76, 1.47 153.73 M101.67 153.29 C76.72 153.95, 53.19 154.11, 0.84 152.91 M-1.93 154.68 C0.31 109.8, -0.13 63.66, 1.42 -0.12 M-0.36 153.59 C1.04 97.35, 0.8 42.83, -0.44 0.3" stroke="#000000" stroke-width="2" fill="none"></path></g><g stroke-linecap="round"><g transform="translate(1144.4835856988407 162.18571975787364) rotate(0 33.1578841758045 -1.2037007960938126)"><path d="M-0.75 -0.69 C8.85 -0.6, 45.33 0.28, 56.63 -0.29 C67.94 -0.87, 65.35 -3.55, 67.07 -4.11 M1.06 1.56 C11.11 1.88, 47.89 1.67, 58.83 0.97 C69.76 0.27, 65.22 -1.51, 66.65 -2.64" stroke="#000000" stroke-width="1" fill="none"></path></g></g><mask></mask><g stroke-linecap="round"><g transform="translate(1147.1280813231856 117.33477557057739) rotate(0 32.2772494651291 -2.0238918218072968)"><path d="M-0.69 -0.99 C3.36 -1.42, 12.48 -3.5, 23.47 -3.32 C34.46 -3.15, 58.21 -0.57, 65.25 0.05 M1.15 1.11 C5.07 0.4, 11.67 -4.57, 22.25 -5.09 C32.84 -5.62, 57.29 -2.59, 64.63 -2.02" stroke="#000000" stroke-width="1" fill="none"></path></g></g><mask></mask><g stroke-linecap="round"><g transform="translate(1147.0188955846024 213.3994099160301) rotate(0 34.74318312407422 0.5515955883623178)"><path d="M-0.99 -0.52 C5.52 -0.42, 29.13 -0.83, 38.32 -0.07 C47.51 0.69, 48.9 4.51, 54.14 4.03 C59.38 3.55, 67.41 -1.76, 69.77 -2.97 M0.69 1.82 C7.17 1.61, 28.9 -2.08, 37.72 -2.04 C46.55 -2, 48.19 2.06, 53.65 2.07 C59.1 2.09, 67.72 -1.1, 70.47 -1.95" stroke="#000000" stroke-width="1" fill="none"></path></g></g><mask></mask><g stroke-linecap="round"><g transform="translate(1142.4803219789578 229.4255093112141) rotate(0 39.29962062149866 -1.77295899814942)"><path d="M-0.52 0.67 C2.06 0.64, 10.74 -0.98, 14.78 -1.15 C18.82 -1.31, 15.22 -0.57, 23.72 -0.33 C32.22 -0.09, 56.87 0.96, 65.77 0.28 C74.68 -0.41, 75.28 -4.02, 77.14 -4.43 M1.41 -0.02 C3.92 -0.32, 10.34 -2.63, 13.99 -3 C17.65 -3.36, 14.68 -2.89, 23.34 -2.21 C32 -1.54, 56.64 1.47, 65.93 1.07 C75.23 0.66, 77.09 -4.03, 79.12 -4.65" stroke="#000000" stroke-width="1" fill="none"></path></g></g><mask></mask><g stroke-linecap="round"><g transform="translate(1142.8863399723687 138.80231194731846) rotate(0 33.664015087240614 0.8605105678783787)"><path d="M0.67 0.29 C5.24 0.36, 15.27 -0.48, 26.45 -0.11 C37.63 0.26, 61.12 2.12, 67.76 2.52 M-0.44 -0.6 C4.11 -0.83, 14.46 -2.58, 25.77 -1.85 C37.09 -1.13, 60.71 2.91, 67.46 3.75" stroke="#000000" stroke-width="1" fill="none"></path></g></g><mask></mask><g stroke-linecap="round"><g transform="translate(1143.0395547528517 187.9552038719919) rotate(0 32.75266380903986 0.7409583058535816)"><path d="M0.29 0.52 C2.42 0.89, 8.02 3.23, 12.27 2.91 C16.51 2.58, 16.73 -1.21, 25.77 -1.44 C34.8 -1.67, 59.72 0.66, 66.48 1.53 M-1.01 -0.26 C1.07 -0.27, 7.38 1.27, 11.7 1.24 C16.02 1.21, 15.78 -0.57, 24.91 -0.44 C34.05 -0.31, 59.3 1.77, 66.52 2.02" stroke="#000000" stroke-width="1" fill="none"></path></g></g><mask></mask><g stroke-linecap="round"><g transform="translate(120.65932717667397 177.30255967002455) rotate(0 139.7838602845195 -0.6065402071063488)"><path d="M0 0 C46.59 -0.2, 232.97 -1.01, 279.57 -1.21 M0 0 C46.59 -0.2, 232.97 -1.01, 279.57 -1.21" stroke="#000000" stroke-width="1" fill="none"></path></g><g transform="translate(120.65932717667397 177.30255967002455) rotate(0 139.7838602845195 -0.6065402071063488)"><path d="M251.42 9.17 C257.54 6.91, 263.66 4.65, 279.57 -1.21 M251.42 9.17 C261.5 5.45, 271.58 1.74, 279.57 -1.21" stroke="#000000" stroke-width="1" fill="none"></path></g><g transform="translate(120.65932717667397 177.30255967002455) rotate(0 139.7838602845195 -0.6065402071063488)"><path d="M251.33 -11.35 C257.47 -9.15, 263.61 -6.94, 279.57 -1.21 M251.33 -11.35 C261.44 -7.72, 271.55 -4.09, 279.57 -1.21" stroke="#000000" stroke-width="1" fill="none"></path></g></g><mask></mask><g stroke-linecap="round"><g transform="translate(325.73824304714526 60.53393889972597) rotate(0 7.972912351519426 7.674490916932058)" fill-rule="evenodd"><path d="M0.73 0.43 L1.05 13.44 L9.6 14.93 L15.69 14.02 L-0.39 0.37" stroke="none" stroke-width="0" fill="#000000" fill-rule="evenodd"></path><path d="M-0.41 0.92 C-0.25 1.85, -0.4 3.88, 0.02 6 C0.43 8.12, 0.71 12.4, 2.08 13.65 C3.45 14.91, 6.08 13.39, 8.22 13.55 C10.36 13.7, 14.5 15.52, 14.92 14.58 C15.34 13.65, 12.34 9.59, 10.72 7.93 C9.1 6.27, 6.89 5.95, 5.19 4.64 C3.49 3.34, 1.32 0.79, 0.52 0.1 M1.57 0.36 C1.64 1.38, -1.01 5.18, -1.04 7.08 C-1.08 8.97, -0.2 10.53, 1.38 11.72 C2.95 12.91, 5.81 13.61, 8.4 14.21 C10.99 14.81, 16.27 16.03, 16.91 15.34 C17.55 14.64, 14.06 11.98, 12.24 10.06 C10.43 8.14, 8.11 5.51, 6.03 3.8 C3.96 2.09, 0.95 0.54, -0.23 -0.19" stroke="#000000" stroke-width="1" fill="none"></path></g></g><mask></mask><g stroke-linecap="round"><g transform="translate(325.71633138350353 60.56445287649103) rotate(0 -22.165528327223342 0.17387824522333517)"><path d="M0.92 -0.21 C-6.69 -0.12, -37.84 0.11, -45.26 0.12 M-0.05 -1.37 C-7.33 -1.03, -35.69 1.3, -43.01 1.72" stroke="#000000" stroke-width="1" fill="none"></path></g></g><mask></mask><g stroke-linecap="round"><g transform="translate(281.44562059698 60.56485316755868) rotate(0 -0.832794263910273 42.79774495990637)"><path d="M-0.21 -0.88 C-0.12 13.38, 0.11 72.19, 0.12 86.48 M-1.78 1.27 C-1.81 15.11, -0.9 70.69, -0.77 84.76" stroke="#000000" stroke-width="1" fill="none"></path></g></g><mask></mask><g stroke-linecap="round"><g transform="translate(281.3657967126119 146.24484620088936) rotate(0 29.93200123842314 0.23290624754503142)"><path d="M-0.88 0.12 C9.09 0.13, 50.74 -0.05, 60.75 -0.14 M0.86 -0.87 C10.66 -0.64, 50.09 1.06, 60.21 1.33" stroke="#000000" stroke-width="1" fill="none"></path></g></g><mask></mask><g stroke-linecap="round"><g transform="translate(341.2537477300866 146.54753920929113) rotate(0 -0.5957627571406192 -36.156388447902145)"><path d="M0.12 0.78 C0.14 -11.25, -0.01 -61.04, -0.09 -73.09 M-1.28 0.15 C-1.41 -11.68, -1.1 -59.72, -1.11 -72" stroke="#000000" stroke-width="1" fill="none"></path></g></g><mask></mask><g stroke-linecap="round"><g transform="translate(325.34074167199196 60.4374886415161) rotate(0 8.51420322825129 7.055976256282349)"><path d="M0.78 -0.14 C3.43 2.18, 12.4 11.57, 15.03 14.02 M-0.27 -1.25 C2.84 1.23, 14.56 12.48, 17.3 15.36" stroke="#000000" stroke-width="1" fill="none"></path></g></g><mask></mask><g stroke-linecap="round"><g transform="translate(283.1890264848885 110.55903030407592) rotate(0 28.66097079874521 11.302094206266815)" fill-rule="evenodd"><path d="M-1.39 1.73 L64.26 -0.51 L67.15 7.63 L66.17 15.03 L64.26 21.81 L62.4 23.79 L54.34 24.23 L-5.24 20.76 L-9.87 17.26 L-8.98 6.1 L-5.48 2.74 L0.91 0.01" stroke="none" stroke-width="0" fill="#fff" fill-rule="evenodd"></path><path d="M-0.14 -0.84 C4.42 -0.86, 17.48 0.67, 27.44 0.69 C37.4 0.71, 53.4 -1.03, 59.64 -0.72 C65.87 -0.41, 63.63 1.3, 64.86 2.54 C66.09 3.78, 66.65 4.43, 67.01 6.72 C67.36 9.01, 67.25 13.76, 66.99 16.27 C66.73 18.79, 66.8 20.61, 65.45 21.81 C64.1 23.01, 64.97 23.16, 58.88 23.47 C52.78 23.78, 38.72 23.71, 28.88 23.67 C19.03 23.62, 5.67 23.55, -0.18 23.2 C-6.04 22.85, -4.88 22.89, -6.24 21.56 C-7.59 20.23, -7.9 17.68, -8.32 15.24 C-8.73 12.81, -9.02 9.24, -8.74 6.95 C-8.45 4.65, -7.92 2.66, -6.63 1.46 C-5.34 0.26, -1.95 -0.09, -1.01 -0.24 M-1.67 1.33 C2.69 0.9, 16.19 -0.87, 26.29 -1.08 C36.4 -1.28, 52.48 -0.16, 58.98 0.1 C65.48 0.37, 64.17 -0.68, 65.31 0.49 C66.45 1.67, 65.87 4.66, 65.81 7.16 C65.75 9.66, 64.87 13.26, 64.95 15.5 C65.04 17.74, 66.95 19.3, 66.32 20.6 C65.7 21.91, 67.68 23, 61.23 23.31 C54.77 23.62, 37.68 22.54, 27.6 22.45 C17.51 22.37, 6.32 22.76, 0.71 22.79 C-4.9 22.83, -4.3 23.46, -6.04 22.66 C-7.78 21.86, -9.26 20.72, -9.72 17.98 C-10.19 15.25, -9.75 9.02, -8.83 6.24 C-7.92 3.45, -5.49 2.46, -4.22 1.26 C-2.95 0.07, -1.84 -0.45, -1.21 -0.92" stroke="#000000" stroke-width="1" fill="none"></path></g></g><mask></mask><g transform="translate(289.7158297905926 108.46509928895784) rotate(0 16.977981567382812 7.800000000000011)"><text x="0" y="0" font-family="Virgil, Segoe UI Emoji" font-size="13.005671727682493px" fill="#000000" text-anchor="start" style="white-space: pre;" direction="ltr" dominant-baseline="text-before-edge">JSON</text></g><g stroke-linecap="round"><g transform="translate(287.69574326690827 75.62238253314979) rotate(0 16.28375090746181 -0.12425642624478428)"><path d="M-0.38 0.69 C5.14 0.67, 27.36 -0.98, 32.94 -0.93 M1.63 0 C7.01 0.18, 26.95 0.26, 32.11 0.11" stroke="#000000" stroke-width="1" fill="none"></path></g></g><mask></mask><g stroke-linecap="round"><g transform="translate(287.73706627087086 81.65989339651185) rotate(0 21.659638520484123 -0.5830756176542593)"><path d="M0.69 0.21 C7.74 0.34, 34.39 0.33, 41.51 0.38 M-0.41 -0.72 C7.09 -0.94, 36.47 -1.41, 43.73 -1.54" stroke="#000000" stroke-width="1" fill="none"></path></g></g><mask></mask><g stroke-linecap="round"><g transform="translate(287.75196544971277 87.81758558559511) rotate(0 20.843021971513622 0.1287525468505919)"><path d="M0.21 -0.93 C7.41 -0.89, 35.7 0.79, 42.82 0.97 M-1.14 1.19 C5.97 0.86, 34.8 -0.69, 42.07 -0.65" stroke="#000000" stroke-width="1" fill="none"></path></g></g><mask></mask><g stroke-linecap="round"><g transform="translate(287.7553044846045 93.98073707937726) rotate(0 21.238322099396214 -0.4007497423421569)"><path d="M-0.93 0.38 C6.19 0.43, 36.16 0.52, 43.41 0.52 M0.78 -0.47 C7.76 -0.79, 36.13 -1.11, 42.97 -1.32" stroke="#000000" stroke-width="1" fill="none"></path></g></g><mask></mask><g stroke-linecap="round"><g transform="translate(287.7040658691458 100.866220456051) rotate(0 21.04283062823606 0.9211484738195281)"><path d="M0.38 0.97 C7.5 1.14, 35.89 0.17, 42.97 0.1 M-0.88 0.43 C6.11 0.89, 35.1 2.02, 42.29 1.68" stroke="#000000" stroke-width="1" fill="none"></path></g></g><mask></mask><g transform="translate(610.104790224919 67.90507591601482) rotate(0 85.5791015625 16.80000000000001)"><text x="0" y="0" font-family="Helvetica, Segoe UI Emoji" font-size="28px" fill="#000000" text-anchor="start" style="white-space: pre;" direction="ltr" dominant-baseline="text-before-edge">gRPC Cluster</text></g><g stroke-linecap="round" transform="translate(431.74598177263556 197.16920437192687) rotate(0 74.64723830445996 48.6829815029086)"><path d="M24.34 0 M24.34 0 C50.13 0, 75.92 0, 124.95 0 M24.34 0 C57.68 0, 91.02 0, 124.95 0 M124.95 0 C141.18 0, 149.29 8.11, 149.29 24.34 M124.95 0 C141.18 0, 149.29 8.11, 149.29 24.34 M149.29 24.34 C149.29 38.2, 149.29 52.05, 149.29 73.02 M149.29 24.34 C149.29 39.31, 149.29 54.28, 149.29 73.02 M149.29 73.02 C149.29 89.25, 141.18 97.37, 124.95 97.37 M149.29 73.02 C149.29 89.25, 141.18 97.37, 124.95 97.37 M124.95 97.37 C104.44 97.37, 83.92 97.37, 24.34 97.37 M124.95 97.37 C92.29 97.37, 59.63 97.37, 24.34 97.37 M24.34 97.37 C8.11 97.37, 0 89.25, 0 73.02 M24.34 97.37 C8.11 97.37, 0 89.25, 0 73.02 M0 73.02 C0 58.03, 0 43.04, 0 24.34 M0 73.02 C0 56.91, 0 40.8, 0 24.34 M0 24.34 C0 8.11, 8.11 0, 24.34 0 M0 24.34 C0 8.11, 8.11 0, 24.34 0" stroke="#000000" stroke-width="1" fill="none"></path></g><g transform="translate(462.0348216395955 212.2521858748354) rotate(0 44.3583984375 33.60000000000002)"><text x="44.3583984375" y="0" font-family="Helvetica, Segoe UI Emoji" font-size="28px" fill="#000000" text-anchor="middle" style="white-space: pre;" direction="ltr" dominant-baseline="text-before-edge">Bundlr </text><text x="44.3583984375" y="33.6" font-family="Helvetica, Segoe UI Emoji" font-size="28px" fill="#000000" text-anchor="middle" style="white-space: pre;" direction="ltr" dominant-baseline="text-before-edge">Client</text></g><g stroke-linecap="round"><g transform="translate(483.8873700396248 335.57448580651464) rotate(0 -0.1092167609946273 99.86651655037235)"><path d="M0 0 C-0.04 33.29, -0.18 166.44, -0.22 199.73 M0 0 C-0.04 33.29, -0.18 166.44, -0.22 199.73" stroke="#000000" stroke-width="1" fill="none"></path></g><g transform="translate(483.8873700396248 335.57448580651464) rotate(0 -0.1092167609946273 99.86651655037235)"><path d="M-10.45 171.53 C-6.83 181.52, -3.2 191.51, -0.22 199.73 M-10.45 171.53 C-7.45 179.79, -4.46 188.05, -0.22 199.73" stroke="#000000" stroke-width="1" fill="none"></path></g><g transform="translate(483.8873700396248 335.57448580651464) rotate(0 -0.1092167609946273 99.86651655037235)"><path d="M10.07 171.55 C6.43 181.53, 2.78 191.51, -0.22 199.73 M10.07 171.55 C7.06 179.81, 4.04 188.06, -0.22 199.73" stroke="#000000" stroke-width="1" fill="none"></path></g></g><mask></mask><g stroke-linecap="round"><g transform="translate(438.1846832034055 379.77492665536977) rotate(0 7.657775940468468 6.537214581782678)" fill-rule="evenodd"><path d="M-1.85 -0.09 L3.11 13.29 L10.17 15.11 L13.97 14.72 L1.98 -1.84" stroke="none" stroke-width="0" fill="#000000" fill-rule="evenodd"></path><path d="M-1.12 0.49 C-1.01 1.63, -0.29 5.61, 0.3 7.51 C0.89 9.42, 1.13 10.7, 2.39 11.93 C3.66 13.16, 5.84 14.73, 7.87 14.88 C9.9 15.02, 14.04 13.87, 14.6 12.81 C15.16 11.75, 13.04 10.12, 11.24 8.51 C9.44 6.89, 5.8 4.71, 3.8 3.13 C1.8 1.55, -0.12 -0.42, -0.76 -0.97 M0.49 -0.3 C0.49 0.43, -0.84 3.55, -0.61 5.72 C-0.38 7.9, 0.44 11.61, 1.86 12.75 C3.27 13.9, 5.43 12.6, 7.86 12.58 C10.29 12.56, 16.17 13.51, 16.43 12.63 C16.68 11.74, 11.46 8.53, 9.38 7.28 C7.29 6.04, 5.23 6.68, 3.91 5.16 C2.6 3.65, 2.42 -0.69, 1.47 -1.82" stroke="#000000" stroke-width="1" fill="none"></path></g></g><mask></mask><g stroke-linecap="round"><g transform="translate(438.16277153976375 379.8054406321347) rotate(0 -21.936069191812066 -0.5285879114546788)"><path d="M0.49 0.07 C-6.92 0.33, -36.11 0.53, -43.74 0.43 M-0.71 -0.94 C-8.28 -0.95, -37.33 -1.71, -44.36 -1.46" stroke="#000000" stroke-width="1" fill="none"></path></g></g><mask></mask><g stroke-linecap="round"><g transform="translate(393.89206075324023 379.80584092320225) rotate(0 -0.44656742689028306 42.8547695071033)"><path d="M0.07 0.63 C0.33 14.67, 0.53 70.49, 0.43 84.75 M-1.35 -0.08 C-1.11 14.04, -0.26 71.76, -0.29 85.79" stroke="#000000" stroke-width="1" fill="none"></path></g></g><mask></mask><g stroke-linecap="round"><g transform="translate(393.8122368688721 465.4858339565335) rotate(0 30.369523036195687 0.15652369533665933)"><path d="M0.63 0.43 C10.39 0.34, 49.05 -0.3, 59.02 -0.48 M-0.5 -0.39 C9.58 -0.32, 51.16 0.69, 61.24 0.8" stroke="#000000" stroke-width="1" fill="none"></path></g></g><mask></mask><g stroke-linecap="round"><g transform="translate(453.70018788634684 465.78852696493504) rotate(0 -0.6031536958627157 -36.22657347737157)"><path d="M0.43 -0.94 C0.35 -13.01, -0.26 -59.7, -0.44 -71.76 M-0.8 1.18 C-1.09 -11.31, -1.48 -61.33, -1.64 -73.63" stroke="#000000" stroke-width="1" fill="none"></path></g></g><mask></mask><g stroke-linecap="round"><g transform="translate(437.7871818282522 379.67847639715967) rotate(0 7.706541973193339 6.5454981274914985)"><path d="M-0.94 -0.48 C1.68 1.73, 13.74 11.1, 16.36 13.7 M0.76 -1.79 C3.21 0.53, 12.94 12.38, 15.67 14.88" stroke="#000000" stroke-width="1" fill="none"></path></g></g><mask></mask><g stroke-linecap="round"><g transform="translate(395.63546664114824 429.80001805971983) rotate(0 29.610008132835674 11.366295134517372)" fill-rule="evenodd"><path d="M-1.55 -1.38 L63.72 2.36 L65.64 8.52 L67.15 15.47 L65.16 20.97 L64.46 22.56 L52.48 21.38 L-4.52 21.07 L-6.63 15.62 L-7.97 7.64 L-6.26 2.98 L1.85 0.95" stroke="none" stroke-width="0" fill="#fff" fill-rule="evenodd"></path><path d="M-0.48 0.49 C3.96 0.47, 17.01 -0.98, 27.12 -1.09 C37.23 -1.2, 54.1 -0.5, 60.16 -0.14 C66.22 0.21, 62.54 0.07, 63.47 1.03 C64.4 2, 65.22 3.22, 65.72 5.66 C66.23 8.09, 66.82 12.99, 66.51 15.63 C66.21 18.27, 64.97 20.21, 63.9 21.5 C62.83 22.79, 65.89 23, 60.11 23.38 C54.33 23.76, 39.44 23.73, 29.22 23.77 C19 23.81, 4.46 24.21, -1.22 23.62 C-6.89 23.04, -3.82 21.64, -4.82 20.24 C-5.81 18.84, -6.5 17.45, -7.18 15.22 C-7.85 12.99, -9.03 9.32, -8.84 6.83 C-8.66 4.35, -7.36 1.53, -6.06 0.32 C-4.76 -0.89, -2.02 -0.22, -1.03 -0.43 M1.46 -0.3 C6.26 -0.13, 19.75 -0.34, 29.47 -0.13 C39.19 0.09, 54.16 0.66, 59.78 0.99 C65.4 1.32, 61.9 1.09, 63.19 1.85 C64.48 2.61, 66.73 3.43, 67.51 5.54 C68.29 7.65, 68.48 12.09, 67.89 14.52 C67.29 16.95, 65.36 18.68, 63.96 20.12 C62.55 21.56, 65.42 22.75, 59.45 23.17 C53.48 23.59, 38.18 22.57, 28.12 22.61 C18.07 22.66, 5.08 23.76, -0.86 23.43 C-6.81 23.1, -6.35 21.56, -7.53 20.65 C-8.72 19.73, -7.74 20.38, -7.99 17.95 C-8.23 15.52, -9.16 8.53, -9 6.07 C-8.83 3.6, -8.31 4.39, -7.01 3.18 C-5.72 1.97, -2.55 -0.66, -1.24 -1.21" stroke="#000000" stroke-width="1" fill="none"></path></g></g><mask></mask><g transform="translate(402.1622699468528 427.7060870446014) rotate(0 16.977981567382812 7.800000000000011)"><text x="0" y="0" font-family="Virgil, Segoe UI Emoji" font-size="13.005671727682493px" fill="#000000" text-anchor="start" style="white-space: pre;" direction="ltr" dominant-baseline="text-before-edge">JSON</text></g><g stroke-linecap="round"><g transform="translate(400.14218342316804 394.86337028879336) rotate(0 16.384072033446046 -0.04349233102749395)"><path d="M-0.7 -1.09 C4.96 -1.23, 28.06 -0.45, 33.46 -0.36 M1.14 0.95 C6.75 0.94, 27.41 1.07, 32.9 1" stroke="#000000" stroke-width="1" fill="none"></path></g></g><mask></mask><g stroke-linecap="round"><g transform="translate(400.1835064271311 400.9008811521554) rotate(0 20.499282284923993 -0.13989453054961132)"><path d="M-1.09 0.73 C5.84 0.68, 34.92 -0.76, 42.09 -1.01 M0.54 0.07 C7.24 0.19, 34.24 -0.02, 40.95 -0.01" stroke="#000000" stroke-width="1" fill="none"></path></g></g><mask></mask><g stroke-linecap="round"><g transform="translate(400.198405605973 407.05857334123857) rotate(0 21.635048713148763 -0.43863769400866204)"><path d="M0.73 -0.36 C7.75 -0.26, 34.61 -0.44, 41.43 -0.54 M-0.34 -1.59 C7.1 -1.24, 36.19 0.47, 43.61 0.71" stroke="#000000" stroke-width="1" fill="none"></path></g></g><mask></mask><g stroke-linecap="round"><g transform="translate(400.2017446408647 413.22172483502095) rotate(0 20.773095806786046 -0.01393712441876005)"><path d="M-0.36 -1.01 C6.81 -1.26, 34.93 -0.92, 41.9 -0.76 M1.66 1.07 C8.71 0.9, 33.63 0.35, 40.67 0.37" stroke="#000000" stroke-width="1" fill="none"></path></g></g><mask></mask><g stroke-linecap="round"><g transform="translate(400.150506025406 420.1072082116948) rotate(0 21.490220517893476 0.4062188964387019)"><path d="M-1.01 -0.54 C5.81 -0.64, 34.45 -1.04, 41.68 -0.97 M0.66 1.79 C7.8 1.84, 37.17 0.17, 43.99 0.06" stroke="#000000" stroke-width="1" fill="none"></path></g></g><mask></mask><g stroke-linecap="round"><g transform="translate(526.7980854578072 526.3266495000364) rotate(0 0 -97.3289539832956)"><path d="M0 0 C0 -32.44, 0 -162.21, 0 -194.66 M0 0 C0 -32.44, 0 -162.21, 0 -194.66" stroke="#000000" stroke-width="1" fill="none"></path></g><g transform="translate(526.7980854578072 526.3266495000364) rotate(0 0 -97.3289539832956)"><path d="M10.26 -166.47 C7.62 -173.73, 4.97 -181, 0 -194.66 M10.26 -166.47 C6.3 -177.35, 2.34 -188.23, 0 -194.66" stroke="#000000" stroke-width="1" fill="none"></path></g><g transform="translate(526.7980854578072 526.3266495000364) rotate(0 0 -97.3289539832956)"><path d="M-10.26 -166.47 C-7.62 -173.73, -4.97 -181, 0 -194.66 M-10.26 -166.47 C-6.3 -177.35, -2.34 -188.23, 0 -194.66" stroke="#000000" stroke-width="1" fill="none"></path></g></g><mask></mask><g transform="translate(550.2674786168993 413.1213413208841) rotate(0 41.2412109375 16.80000000000001)"><text x="0" y="0" font-family="Helvetica, Segoe UI Emoji" font-size="28px" fill="#000000" text-anchor="start" style="white-space: pre;" direction="ltr" dominant-baseline="text-before-edge">&lt;txID&gt;</text></g><g transform="translate(169.2349779163378 94.21370486497926) rotate(0 39.64036560058594 18)"><text x="0" y="0" font-family="Helvetica, Segoe UI Emoji" font-size="30.670354740650982px" fill="#000000" text-anchor="start" style="white-space: pre;" direction="ltr" dominant-baseline="text-before-edge">Key +</text></g><g transform="translate(267.2542081690185 10) rotate(0 42.79296875 16.80000000000001)"><text x="0" y="0" font-family="Helvetica, Segoe UI Emoji" font-size="28px" fill="#000000" text-anchor="start" style="white-space: pre;" direction="ltr" dominant-baseline="text-before-edge">(value)</text></g><g stroke-linecap="round"><g transform="translate(842.5965629674374 169.37008216567358) rotate(0 139.7838602845195 -0.6065402071063488)"><path d="M0 0 C46.59 -0.2, 232.97 -1.01, 279.57 -1.21 M0 0 C46.59 -0.2, 232.97 -1.01, 279.57 -1.21" stroke="#000000" stroke-width="1" fill="none"></path></g><g transform="translate(842.5965629674374 169.37008216567358) rotate(0 139.7838602845195 -0.6065402071063488)"><path d="M251.42 9.17 C261.12 5.59, 270.82 2.01, 279.57 -1.21 M251.42 9.17 C258.76 6.46, 266.09 3.76, 279.57 -1.21" stroke="#000000" stroke-width="1" fill="none"></path></g><g transform="translate(842.5965629674374 169.37008216567358) rotate(0 139.7838602845195 -0.6065402071063488)"><path d="M251.33 -11.35 C261.06 -7.86, 270.8 -4.36, 279.57 -1.21 M251.33 -11.35 C258.69 -8.71, 266.05 -6.07, 279.57 -1.21" stroke="#000000" stroke-width="1" fill="none"></path></g></g><mask></mask><g transform="translate(895.4056133094371 106.63867771391051) rotate(0 70.69986724853516 18)"><text x="0" y="0" font-family="Helvetica, Segoe UI Emoji" font-size="30.479881412235205px" fill="#000000" text-anchor="start" style="white-space: pre;" direction="ltr" dominant-baseline="text-before-edge">Key + txID</text></g><g transform="translate(1130.0995449003628 29.327735542781966) rotate(0 52.91015625 16.80000000000001)"><text x="0" y="0" font-family="Helvetica, Segoe UI Emoji" font-size="28px" fill="#000000" text-anchor="start" style="white-space: pre;" direction="ltr" dominant-baseline="text-before-edge">Contract</text></g></svg>