<svg version="1.1" xmlns="http://www.w3.org/2000/svg" viewBox="0 0 914.5550067028921 721.0035766811843" width="914.5550067028921" height="721.0035766811843">
  <!-- svg-source:excalidraw -->
  
  <defs>
    <style class="style-fonts">
      @font-face {
        font-family: "Virgil";
        src: url("https://excalidraw.com/Virgil.woff2");
      }
      @font-face {
        font-family: "Cascadia";
        src: url("https://excalidraw.com/Cascadia.woff2");
      }
    </style>
  </defs>
  <g stroke-linecap="round" transform="translate(58.13971464642418 313.4787165596772) rotate(0 104.77832221367453 52.110000390459646)"><path d="M26.06 0 M26.06 0 C63 0, 99.95 0, 183.5 0 M26.06 0 C63.05 0, 100.05 0, 183.5 0 M183.5 0 C200.87 0, 209.56 8.69, 209.56 26.06 M183.5 0 C200.87 0, 209.56 8.69, 209.56 26.06 M209.56 26.06 C209.56 46.29, 209.56 66.53, 209.56 78.17 M209.56 26.06 C209.56 43.69, 209.56 61.33, 209.56 78.17 M209.56 78.17 C209.56 95.54, 200.87 104.22, 183.5 104.22 M209.56 78.17 C209.56 95.54, 200.87 104.22, 183.5 104.22 M183.5 104.22 C137.19 104.22, 90.89 104.22, 26.06 104.22 M183.5 104.22 C151.78 104.22, 120.06 104.22, 26.06 104.22 M26.06 104.22 C8.69 104.22, 0 95.54, 0 78.17 M26.06 104.22 C8.69 104.22, 0 95.54, 0 78.17 M0 78.17 C0 65.67, 0 53.17, 0 26.06 M0 78.17 C0 64.73, 0 51.3, 0 26.06 M0 26.06 C0 8.69, 8.69 0, 26.06 0 M0 26.06 C0 8.69, 8.69 0, 26.06 0" stroke="#000000" stroke-width="1" fill="none"></path></g><g transform="translate(75.26157191757557 352.6852882820231) rotate(0 68.0728988647461 10.800000000000011)"><text x="0" y="0" font-family="Helvetica, Segoe UI Emoji" font-size="18.56031350766608px" fill="#000000" text-anchor="start" style="white-space: pre;" direction="ltr" dominant-baseline="text-before-edge">HollowDB gRPC</text></g><g stroke-linecap="round" transform="translate(541.7405282631389 356.2814133484481) rotate(0 6.823928622560061 8.064642917571177)"><path d="M13.65 8.06 C13.65 8.53, 13.61 9.01, 13.54 9.47 C13.48 9.92, 13.37 10.38, 13.24 10.82 C13.1 11.26, 12.93 11.69, 12.73 12.1 C12.54 12.5, 12.31 12.89, 12.05 13.25 C11.8 13.61, 11.51 13.94, 11.21 14.24 C10.91 14.54, 10.58 14.82, 10.24 15.05 C9.89 15.28, 9.53 15.48, 9.16 15.64 C8.79 15.8, 8.4 15.93, 8.01 16.01 C7.62 16.09, 7.22 16.13, 6.82 16.13 C6.43 16.13, 6.03 16.09, 5.64 16.01 C5.25 15.93, 4.86 15.8, 4.49 15.64 C4.12 15.48, 3.75 15.28, 3.41 15.05 C3.07 14.82, 2.74 14.54, 2.44 14.24 C2.14 13.94, 1.85 13.61, 1.6 13.25 C1.34 12.89, 1.11 12.5, 0.91 12.1 C0.72 11.69, 0.55 11.26, 0.41 10.82 C0.28 10.38, 0.17 9.92, 0.1 9.47 C0.04 9.01, 0 8.53, 0 8.06 C0 7.6, 0.04 7.12, 0.1 6.66 C0.17 6.2, 0.28 5.75, 0.41 5.31 C0.55 4.87, 0.72 4.44, 0.91 4.03 C1.11 3.63, 1.34 3.24, 1.6 2.88 C1.85 2.52, 2.14 2.19, 2.44 1.89 C2.74 1.59, 3.07 1.31, 3.41 1.08 C3.75 0.85, 4.12 0.65, 4.49 0.49 C4.86 0.33, 5.25 0.2, 5.64 0.12 C6.03 0.04, 6.43 0, 6.82 0 C7.22 0, 7.62 0.04, 8.01 0.12 C8.4 0.2, 8.79 0.33, 9.16 0.49 C9.53 0.65, 9.89 0.85, 10.24 1.08 C10.58 1.31, 10.91 1.59, 11.21 1.89 C11.51 2.19, 11.8 2.52, 12.05 2.88 C12.31 3.24, 12.54 3.63, 12.73 4.03 C12.93 4.44, 13.1 4.87, 13.24 5.31 C13.37 5.75, 13.48 6.2, 13.54 6.66 C13.61 7.12, 13.63 7.83, 13.65 8.06 C13.67 8.3, 13.67 7.83, 13.65 8.06" stroke="#000000" stroke-width="1" fill="none"></path></g><g stroke-linecap="round" transform="translate(578.6661753379617 355.4500910139988) rotate(0 6.823928622560061 8.064642917571177)"><path d="M13.65 8.06 C13.65 8.53, 13.61 9.01, 13.54 9.47 C13.48 9.92, 13.37 10.38, 13.24 10.82 C13.1 11.26, 12.93 11.69, 12.73 12.1 C12.54 12.5, 12.31 12.89, 12.05 13.25 C11.8 13.61, 11.51 13.94, 11.21 14.24 C10.91 14.54, 10.58 14.82, 10.24 15.05 C9.89 15.28, 9.53 15.48, 9.16 15.64 C8.79 15.8, 8.4 15.93, 8.01 16.01 C7.62 16.09, 7.22 16.13, 6.82 16.13 C6.43 16.13, 6.03 16.09, 5.64 16.01 C5.25 15.93, 4.86 15.8, 4.49 15.64 C4.12 15.48, 3.75 15.28, 3.41 15.05 C3.07 14.82, 2.74 14.54, 2.44 14.24 C2.14 13.94, 1.85 13.61, 1.6 13.25 C1.34 12.89, 1.11 12.5, 0.91 12.1 C0.72 11.69, 0.55 11.26, 0.41 10.82 C0.28 10.38, 0.17 9.92, 0.1 9.47 C0.04 9.01, 0 8.53, 0 8.06 C0 7.6, 0.04 7.12, 0.1 6.66 C0.17 6.2, 0.28 5.75, 0.41 5.31 C0.55 4.87, 0.72 4.44, 0.91 4.03 C1.11 3.63, 1.34 3.24, 1.6 2.88 C1.85 2.52, 2.14 2.19, 2.44 1.89 C2.74 1.59, 3.07 1.31, 3.41 1.08 C3.75 0.85, 4.12 0.65, 4.49 0.49 C4.86 0.33, 5.25 0.2, 5.64 0.12 C6.03 0.04, 6.43 0, 6.82 0 C7.22 0, 7.62 0.04, 8.01 0.12 C8.4 0.2, 8.79 0.33, 9.16 0.49 C9.53 0.65, 9.89 0.85, 10.24 1.08 C10.58 1.31, 10.91 1.59, 11.21 1.89 C11.51 2.19, 11.8 2.52, 12.05 2.88 C12.31 3.24, 12.54 3.63, 12.73 4.03 C12.93 4.44, 13.1 4.87, 13.24 5.31 C13.37 5.75, 13.48 6.2, 13.54 6.66 C13.61 7.12, 13.63 7.83, 13.65 8.06 C13.67 8.3, 13.67 7.83, 13.65 8.06" stroke="#000000" stroke-width="1" fill="none"></path></g><g stroke-linecap="round" transform="translate(613.106626701544 355.9693496267079) rotate(0 6.823928622560061 8.064642917571177)"><path d="M13.65 8.06 C13.65 8.53, 13.61 9.01, 13.54 9.47 C13.48 9.92, 13.37 10.38, 13.24 10.82 C13.1 11.26, 12.93 11.69, 12.73 12.1 C12.54 12.5, 12.31 12.89, 12.05 13.25 C11.8 13.61, 11.51 13.94, 11.21 14.24 C10.91 14.54, 10.58 14.82, 10.24 15.05 C9.89 15.28, 9.53 15.48, 9.16 15.64 C8.79 15.8, 8.4 15.93, 8.01 16.01 C7.62 16.09, 7.22 16.13, 6.82 16.13 C6.43 16.13, 6.03 16.09, 5.64 16.01 C5.25 15.93, 4.86 15.8, 4.49 15.64 C4.12 15.48, 3.75 15.28, 3.41 15.05 C3.07 14.82, 2.74 14.54, 2.44 14.24 C2.14 13.94, 1.85 13.61, 1.6 13.25 C1.34 12.89, 1.11 12.5, 0.91 12.1 C0.72 11.69, 0.55 11.26, 0.41 10.82 C0.28 10.38, 0.17 9.92, 0.1 9.47 C0.04 9.01, 0 8.53, 0 8.06 C0 7.6, 0.04 7.12, 0.1 6.66 C0.17 6.2, 0.28 5.75, 0.41 5.31 C0.55 4.87, 0.72 4.44, 0.91 4.03 C1.11 3.63, 1.34 3.24, 1.6 2.88 C1.85 2.52, 2.14 2.19, 2.44 1.89 C2.74 1.59, 3.07 1.31, 3.41 1.08 C3.75 0.85, 4.12 0.65, 4.49 0.49 C4.86 0.33, 5.25 0.2, 5.64 0.12 C6.03 0.04, 6.43 0, 6.82 0 C7.22 0, 7.62 0.04, 8.01 0.12 C8.4 0.2, 8.79 0.33, 9.16 0.49 C9.53 0.65, 9.89 0.85, 10.24 1.08 C10.58 1.31, 10.91 1.59, 11.21 1.89 C11.51 2.19, 11.8 2.52, 12.05 2.88 C12.31 3.24, 12.54 3.63, 12.73 4.03 C12.93 4.44, 13.1 4.87, 13.24 5.31 C13.37 5.75, 13.48 6.2, 13.54 6.66 C13.61 7.12, 13.63 7.83, 13.65 8.06 C13.67 8.3, 13.67 7.83, 13.65 8.06" stroke="#000000" stroke-width="1" fill="none"></path></g><g stroke-linecap="round" transform="translate(297.2873950097842 312.7342879826707) rotate(0 104.77832221367453 52.110000390459646)"><path d="M26.06 0 M26.06 0 C80.11 0, 134.16 0, 183.5 0 M26.06 0 C67.71 0, 109.36 0, 183.5 0 M183.5 0 C200.87 0, 209.56 8.69, 209.56 26.06 M183.5 0 C200.87 0, 209.56 8.69, 209.56 26.06 M209.56 26.06 C209.56 37.96, 209.56 49.87, 209.56 78.17 M209.56 26.06 C209.56 36.69, 209.56 47.33, 209.56 78.17 M209.56 78.17 C209.56 95.54, 200.87 104.22, 183.5 104.22 M209.56 78.17 C209.56 95.54, 200.87 104.22, 183.5 104.22 M183.5 104.22 C122.77 104.22, 62.04 104.22, 26.06 104.22 M183.5 104.22 C140.66 104.22, 97.82 104.22, 26.06 104.22 M26.06 104.22 C8.69 104.22, 0 95.54, 0 78.17 M26.06 104.22 C8.69 104.22, 0 95.54, 0 78.17 M0 78.17 C0 60.23, 0 42.29, 0 26.06 M0 78.17 C0 62.22, 0 46.28, 0 26.06 M0 26.06 C0 8.69, 8.69 0, 26.06 0 M0 26.06 C0 8.69, 8.69 0, 26.06 0" stroke="#000000" stroke-width="1" fill="none"></path></g><g transform="translate(314.40925228093465 351.9408597050165) rotate(0 68.0728988647461 10.800000000000011)"><text x="0" y="0" font-family="Helvetica, Segoe UI Emoji" font-size="18.56031350766608px" fill="#000000" text-anchor="start" style="white-space: pre;" direction="ltr" dominant-baseline="text-before-edge">HollowDB gRPC</text></g><g stroke-linecap="round" transform="translate(657.0945405629591 312.7342879826707) rotate(0 104.77832221367453 52.110000390459646)"><path d="M26.06 0 M26.06 0 C63.05 0, 100.05 0, 183.5 0 M26.06 0 C81.45 0, 136.85 0, 183.5 0 M183.5 0 C200.87 0, 209.56 8.69, 209.56 26.06 M183.5 0 C200.87 0, 209.56 8.69, 209.56 26.06 M209.56 26.06 C209.56 43.69, 209.56 61.33, 209.56 78.17 M209.56 26.06 C209.56 42.42, 209.56 58.79, 209.56 78.17 M209.56 78.17 C209.56 95.54, 200.87 104.22, 183.5 104.22 M209.56 78.17 C209.56 95.54, 200.87 104.22, 183.5 104.22 M183.5 104.22 C151.78 104.22, 120.06 104.22, 26.06 104.22 M183.5 104.22 C132.48 104.22, 81.45 104.22, 26.06 104.22 M26.06 104.22 C8.69 104.22, 0 95.54, 0 78.17 M26.06 104.22 C8.69 104.22, 0 95.54, 0 78.17 M0 78.17 C0 64.73, 0 51.3, 0 26.06 M0 78.17 C0 63.94, 0 49.72, 0 26.06 M0 26.06 C0 8.69, 8.69 0, 26.06 0 M0 26.06 C0 8.69, 8.69 0, 26.06 0" stroke="#000000" stroke-width="1" fill="none"></path></g><g transform="translate(674.2163978341096 351.9408597050163) rotate(0 68.0728988647461 10.800000000000011)"><text x="0" y="0" font-family="Helvetica, Segoe UI Emoji" font-size="18.56031350766608px" fill="#000000" text-anchor="start" style="white-space: pre;" direction="ltr" dominant-baseline="text-before-edge">HollowDB gRPC</text></g><g stroke-linecap="round" transform="translate(55.906428915404376 573.2842899349694) rotate(0 403.852503026063 49.008214652932395)"><path d="M24.5 0 M24.5 0 C178.12 0, 331.73 0, 783.2 0 M24.5 0 C313.56 0, 602.63 0, 783.2 0 M783.2 0 C799.54 0, 807.71 8.17, 807.71 24.5 M783.2 0 C799.54 0, 807.71 8.17, 807.71 24.5 M807.71 24.5 C807.71 40.97, 807.71 57.44, 807.71 73.51 M807.71 24.5 C807.71 38.91, 807.71 53.32, 807.71 73.51 M807.71 73.51 C807.71 89.85, 799.54 98.02, 783.2 98.02 M807.71 73.51 C807.71 89.85, 799.54 98.02, 783.2 98.02 M783.2 98.02 C599.64 98.02, 416.09 98.02, 24.5 98.02 M783.2 98.02 C538.57 98.02, 293.94 98.02, 24.5 98.02 M24.5 98.02 C8.17 98.02, 0 89.85, 0 73.51 M24.5 98.02 C8.17 98.02, 0 89.85, 0 73.51 M0 73.51 C0 57.65, 0 41.79, 0 24.5 M0 73.51 C0 59.03, 0 44.55, 0 24.5 M0 24.5 C0 8.17, 8.17 0, 24.5 0 M0 24.5 C0 8.17, 8.17 0, 24.5 0" stroke="#000000" stroke-width="1" fill="none"></path></g><g transform="translate(356.5950983233033 609.0925045879017) rotate(0 103.16383361816406 13.199999999999989)"><text x="103.16383361816406" y="0" font-family="Helvetica, Segoe UI Emoji" font-size="22.36556091734931px" fill="#000000" text-anchor="middle" style="white-space: pre;" direction="ltr" dominant-baseline="text-before-edge">Shared Redis Cache</text></g><g stroke-linecap="round" transform="translate(55.28607176790001 50.323214587855745) rotate(0 403.852503026063 49.00821465293238)"><path d="M24.5 0 M24.5 0 C235.36 0, 446.21 0, 783.2 0 M24.5 0 C249.11 0, 473.72 0, 783.2 0 M783.2 0 C799.54 0, 807.71 8.17, 807.71 24.5 M783.2 0 C799.54 0, 807.71 8.17, 807.71 24.5 M807.71 24.5 C807.71 37.55, 807.71 50.6, 807.71 73.51 M807.71 24.5 C807.71 38.98, 807.71 53.46, 807.71 73.51 M807.71 73.51 C807.71 89.85, 799.54 98.02, 783.2 98.02 M807.71 73.51 C807.71 89.85, 799.54 98.02, 783.2 98.02 M783.2 98.02 C508.76 98.02, 234.32 98.02, 24.5 98.02 M783.2 98.02 C571.25 98.02, 359.3 98.02, 24.5 98.02 M24.5 98.02 C8.17 98.02, 0 89.85, 0 73.51 M24.5 98.02 C8.17 98.02, 0 89.85, 0 73.51 M0 73.51 C0 58.65, 0 43.79, 0 24.5 M0 73.51 C0 53.93, 0 34.35, 0 24.5 M0 24.5 C0 8.17, 8.17 0, 24.5 0 M0 24.5 C0 8.17, 8.17 0, 24.5 0" stroke="#000000" stroke-width="1" fill="none"></path></g><g transform="translate(393.2759725600763 86.13142924078812) rotate(0 65.86260223388672 13.199999999999989)"><text x="65.86260223388672" y="0" font-family="Helvetica, Segoe UI Emoji" font-size="22.36556091734931px" fill="#000000" text-anchor="middle" style="white-space: pre;" direction="ltr" dominant-baseline="text-before-edge">Envoy Proxy </text></g><g stroke-linecap="round"><g transform="translate(162.60785828634653 434.32428889374347) rotate(0 -1.2407142950110028 64.51714334056913)"><path d="M0 0 C-0.41 21.51, -2.07 107.53, -2.48 129.03 M0 0 C-0.41 21.51, -2.07 107.53, -2.48 129.03" stroke="#000000" stroke-width="1" fill="none"></path></g><g transform="translate(162.60785828634653 434.32428889374347) rotate(0 -1.2407142950110028 64.51714334056913)"><path d="M9.72 28.38 C7.34 21.45, 4.97 14.51, 0 0 M9.72 28.38 C7.61 22.24, 5.51 16.1, 0 0" stroke="#000000" stroke-width="1" fill="none"></path></g><g transform="translate(162.60785828634653 434.32428889374347) rotate(0 -1.2407142950110028 64.51714334056913)"><path d="M-10.8 27.99 C-8.16 21.15, -5.52 14.31, 0 0 M-10.8 27.99 C-8.46 21.93, -6.13 15.88, 0 0" stroke="#000000" stroke-width="1" fill="none"></path></g><g transform="translate(162.60785828634653 434.32428889374347) rotate(0 -1.2407142950110028 64.51714334056913)"><path d="M-12.2 100.65 C-9.82 107.59, -7.45 114.53, -2.48 129.03 M-12.2 100.65 C-10.1 106.79, -7.99 112.93, -2.48 129.03" stroke="#000000" stroke-width="1" fill="none"></path></g><g transform="translate(162.60785828634653 434.32428889374347) rotate(0 -1.2407142950110028 64.51714334056913)"><path d="M8.32 101.05 C5.68 107.89, 3.04 114.73, -2.48 129.03 M8.32 101.05 C5.98 107.1, 3.65 113.16, -2.48 129.03" stroke="#000000" stroke-width="1" fill="none"></path></g></g><mask></mask><g stroke-linecap="round"><g transform="translate(406.07921803732233 434.06094622678796) rotate(0 -0.6203571475055014 63.27642904555819)"><path d="M0 0 C-0.21 21.09, -1.03 105.46, -1.24 126.55 M0 0 C-0.21 21.09, -1.03 105.46, -1.24 126.55" stroke="#000000" stroke-width="1" fill="none"></path></g><g transform="translate(406.07921803732233 434.06094622678796) rotate(0 -0.6203571475055014 63.27642904555819)"><path d="M9.98 28.29 C6.47 18.34, 2.96 8.38, 0 0 M9.98 28.29 C6.68 18.93, 3.38 9.56, 0 0" stroke="#000000" stroke-width="1" fill="none"></path></g><g transform="translate(406.07921803732233 434.06094622678796) rotate(0 -0.6203571475055014 63.27642904555819)"><path d="M-10.54 28.09 C-6.83 18.21, -3.12 8.32, 0 0 M-10.54 28.09 C-7.05 18.79, -3.56 9.5, 0 0" stroke="#000000" stroke-width="1" fill="none"></path></g><g transform="translate(406.07921803732233 434.06094622678796) rotate(0 -0.6203571475055014 63.27642904555819)"><path d="M-11.22 98.26 C-7.71 108.22, -4.2 118.17, -1.24 126.55 M-11.22 98.26 C-7.92 107.63, -4.62 116.99, -1.24 126.55" stroke="#000000" stroke-width="1" fill="none"></path></g><g transform="translate(406.07921803732233 434.06094622678796) rotate(0 -0.6203571475055014 63.27642904555819)"><path d="M9.3 98.46 C5.59 108.35, 1.88 118.23, -1.24 126.55 M9.3 98.46 C5.81 107.76, 2.32 117.06, -1.24 126.55" stroke="#000000" stroke-width="1" fill="none"></path></g></g><mask></mask><g stroke-linecap="round"><g transform="translate(764.6456492954849 435.30166052179874) rotate(0 2.2737367544323206e-13 60.174643308030795)"><path d="M0 0 C0 45.8, 0 91.6, 0 120.35 M0 0 C0 31.56, 0 63.12, 0 120.35" stroke="#000000" stroke-width="1" fill="none"></path></g><g transform="translate(764.6456492954849 435.30166052179874) rotate(0 2.2737367544323206e-13 60.174643308030795)"><path d="M10.26 28.19 C6.36 17.46, 2.45 6.73, 0 0 M10.26 28.19 C7.57 20.8, 4.88 13.41, 0 0" stroke="#000000" stroke-width="1" fill="none"></path></g><g transform="translate(764.6456492954849 435.30166052179874) rotate(0 2.2737367544323206e-13 60.174643308030795)"><path d="M-10.26 28.19 C-6.36 17.46, -2.45 6.73, 0 0 M-10.26 28.19 C-7.57 20.8, -4.88 13.41, 0 0" stroke="#000000" stroke-width="1" fill="none"></path></g><g transform="translate(764.6456492954849 435.30166052179874) rotate(0 2.2737367544323206e-13 60.174643308030795)"><path d="M-10.26 92.16 C-6.36 102.89, -2.45 113.61, 0 120.35 M-10.26 92.16 C-7.57 99.55, -4.88 106.94, 0 120.35" stroke="#000000" stroke-width="1" fill="none"></path></g><g transform="translate(764.6456492954849 435.30166052179874) rotate(0 2.2737367544323206e-13 60.174643308030795)"><path d="M10.26 92.16 C6.36 102.89, 2.45 113.61, 0 120.35 M10.26 92.16 C7.57 99.55, 4.88 106.94, 0 120.35" stroke="#000000" stroke-width="1" fill="none"></path></g></g><mask></mask><g stroke-linecap="round"><g transform="translate(165.38064480519824 171.02951568446707) rotate(0 -0.6203571475055014 62.656071898052744)"><path d="M0 0 C-0.21 20.89, -1.03 104.43, -1.24 125.31 M0 0 C-0.21 20.89, -1.03 104.43, -1.24 125.31" stroke="#000000" stroke-width="1" fill="none"></path></g><g transform="translate(165.38064480519824 171.02951568446707) rotate(0 -0.6203571475055014 62.656071898052744)"><path d="M9.98 28.29 C6.18 17.51, 2.38 6.73, 0 0 M9.98 28.29 C7.7 21.83, 5.42 15.36, 0 0" stroke="#000000" stroke-width="1" fill="none"></path></g><g transform="translate(165.38064480519824 171.02951568446707) rotate(0 -0.6203571475055014 62.656071898052744)"><path d="M-10.54 28.09 C-6.52 17.39, -2.51 6.69, 0 0 M-10.54 28.09 C-8.13 21.67, -5.72 15.25, 0 0" stroke="#000000" stroke-width="1" fill="none"></path></g><g transform="translate(165.38064480519824 171.02951568446707) rotate(0 -0.6203571475055014 62.656071898052744)"><path d="M-11.22 97.02 C-7.42 107.8, -3.62 118.58, -1.24 125.31 M-11.22 97.02 C-8.94 103.49, -6.66 109.95, -1.24 125.31" stroke="#000000" stroke-width="1" fill="none"></path></g><g transform="translate(165.38064480519824 171.02951568446707) rotate(0 -0.6203571475055014 62.656071898052744)"><path d="M9.3 97.22 C5.28 107.93, 1.27 118.63, -1.24 125.31 M9.3 97.22 C6.89 103.64, 4.48 110.06, -1.24 125.31" stroke="#000000" stroke-width="1" fill="none"></path></g></g><mask></mask><g stroke-linecap="round"><g transform="translate(408.5606466273439 167.30737279943452) rotate(0 -1.2407142950110028 65.75785763558008)"><path d="M0 0 C-0.41 21.92, -2.07 109.6, -2.48 131.52 M0 0 C-0.41 21.92, -2.07 109.6, -2.48 131.52" stroke="#000000" stroke-width="1" fill="none"></path></g><g transform="translate(408.5606466273439 167.30737279943452) rotate(0 -1.2407142950110028 65.75785763558008)"><path d="M9.73 28.38 C7.12 20.76, 4.5 13.14, 0 0 M9.73 28.38 C7.01 20.45, 4.29 12.52, 0 0" stroke="#000000" stroke-width="1" fill="none"></path></g><g transform="translate(408.5606466273439 167.30737279943452) rotate(0 -1.2407142950110028 65.75785763558008)"><path d="M-10.79 27.99 C-7.89 20.48, -5 12.96, 0 0 M-10.79 27.99 C-7.77 20.17, -4.76 12.34, 0 0" stroke="#000000" stroke-width="1" fill="none"></path></g><g transform="translate(408.5606466273439 167.30737279943452) rotate(0 -1.2407142950110028 65.75785763558008)"><path d="M-12.21 103.14 C-9.6 110.76, -6.99 118.38, -2.48 131.52 M-12.21 103.14 C-9.49 111.07, -6.77 119, -2.48 131.52" stroke="#000000" stroke-width="1" fill="none"></path></g><g transform="translate(408.5606466273439 167.30737279943452) rotate(0 -1.2407142950110028 65.75785763558008)"><path d="M8.31 103.52 C5.41 111.04, 2.51 118.55, -2.48 131.52 M8.31 103.52 C5.29 111.35, 2.28 119.17, -2.48 131.52" stroke="#000000" stroke-width="1" fill="none"></path></g></g><mask></mask><g stroke-linecap="round"><g transform="translate(764.6456492954849 166.06665850442351) rotate(0 0.6203571475055014 64.5171433405691)"><path d="M0 0 C0.21 21.51, 1.03 107.53, 1.24 129.03 M0 0 C0.21 21.51, 1.03 107.53, 1.24 129.03" stroke="#000000" stroke-width="1" fill="none"></path></g><g transform="translate(764.6456492954849 166.06665850442351) rotate(0 0.6203571475055014 64.5171433405691)"><path d="M10.53 28.09 C7.41 19.77, 4.3 11.46, 0 0 M10.53 28.09 C6.97 18.58, 3.4 9.08, 0 0" stroke="#000000" stroke-width="1" fill="none"></path></g><g transform="translate(764.6456492954849 166.06665850442351) rotate(0 0.6203571475055014 64.5171433405691)"><path d="M-9.99 28.29 C-7.03 19.91, -4.07 11.54, 0 0 M-9.99 28.29 C-6.61 18.71, -3.23 9.14, 0 0" stroke="#000000" stroke-width="1" fill="none"></path></g><g transform="translate(764.6456492954849 166.06665850442351) rotate(0 0.6203571475055014 64.5171433405691)"><path d="M-9.29 100.94 C-6.17 109.26, -3.06 117.58, 1.24 129.03 M-9.29 100.94 C-5.73 110.45, -2.16 119.96, 1.24 129.03" stroke="#000000" stroke-width="1" fill="none"></path></g><g transform="translate(764.6456492954849 166.06665850442351) rotate(0 0.6203571475055014 64.5171433405691)"><path d="M11.23 100.75 C8.27 109.12, 5.32 117.5, 1.24 129.03 M11.23 100.75 C7.85 110.32, 4.47 119.89, 1.24 129.03" stroke="#000000" stroke-width="1" fill="none"></path></g></g><mask></mask><g stroke-linecap="round" transform="translate(10 10) rotate(0 447.27750335144606 350.50178834059216)"><path d="M32 0 M32 0 C276.47 -3.18, 518.87 -2.68, 862.56 0 M862.56 0 C883.65 -1.43, 894.15 11.44, 894.56 32 M894.56 32 C895.2 264.61, 895.6 498.87, 894.56 669 M894.56 669 C894.24 690.22, 885.02 700.91, 862.56 701 M862.56 701 C550.47 697.61, 238.92 698.1, 32 701 M32 701 C9.02 702.72, 1.28 688.37, 0 669 M0 669 C1.97 519.85, 1.06 371.33, 0 32 M0 32 C1.81 11.12, 11.8 -0.41, 32 0" stroke="#000000" stroke-width="1.5" fill="none" stroke-dasharray="8 9"></path></g></svg>