<svg version="1.1" xmlns="http://www.w3.org/2000/svg" viewBox="0 0 902 393" width="902" height="393" filter="invert(93%) hue-rotate(180deg)">
  <!-- svg-source:excalidraw -->
  
  <defs>
    <style class="style-fonts">
      @font-face {
        font-family: "Virgil";
        src: url("https://excalidraw.com/Virgil.woff2");
      }
      @font-face {
        font-family: "Cascadia";
        src: url("https://excalidraw.com/Cascadia.woff2");
      }
    </style>
  </defs>
  <g stroke-linecap="round" transform="translate(10 17) rotate(0 79 183)"><path d="M32 0 M32 0 C69.32 0, 106.64 0, 126 0 M32 0 C59.18 0, 86.37 0, 126 0 M126 0 C147.33 0, 158 10.67, 158 32 M126 0 C147.33 0, 158 10.67, 158 32 M158 32 C158 145.78, 158 259.55, 158 334 M158 32 C158 134.91, 158 237.83, 158 334 M158 334 C158 355.33, 147.33 366, 126 366 M158 334 C158 355.33, 147.33 366, 126 366 M126 366 C96.39 366, 66.79 366, 32 366 M126 366 C91.09 366, 56.17 366, 32 366 M32 366 C10.67 366, 0 355.33, 0 334 M32 366 C10.67 366, 0 355.33, 0 334 M0 334 C0 266.24, 0 198.49, 0 32 M0 334 C0 244.64, 0 155.27, 0 32 M0 32 C0 10.67, 10.67 0, 32 0 M0 32 C0 10.67, 10.67 0, 32 0" stroke="#000000" stroke-width="1" fill="none"></path></g><g transform="translate(57 179) rotate(0 33.3447265625 24)"><text x="0" y="0" font-family="Helvetica, Segoe UI Emoji" font-size="20px" fill="#000000" text-anchor="start" style="white-space: pre;" direction="ltr" dominant-baseline="text-before-edge">Client</text><text x="0" y="24" font-family="Helvetica, Segoe UI Emoji" font-size="20px" fill="#000000" text-anchor="start" style="white-space: pre;" direction="ltr" dominant-baseline="text-before-edge">Service</text></g><g stroke-linecap="round" transform="translate(374 11) rotate(0 79 183)"><path d="M32 0 M32 0 C51.87 0, 71.75 0, 126 0 M32 0 C53.54 0, 75.08 0, 126 0 M126 0 C147.33 0, 158 10.67, 158 32 M126 0 C147.33 0, 158 10.67, 158 32 M158 32 C158 151.14, 158 270.27, 158 334 M158 32 C158 102.28, 158 172.55, 158 334 M158 334 C158 355.33, 147.33 366, 126 366 M158 334 C158 355.33, 147.33 366, 126 366 M126 366 C106.6 366, 87.19 366, 32 366 M126 366 C106.43 366, 86.87 366, 32 366 M32 366 C10.67 366, 0 355.33, 0 334 M32 366 C10.67 366, 0 355.33, 0 334 M0 334 C0 231.62, 0 129.25, 0 32 M0 334 C0 250.15, 0 166.3, 0 32 M0 32 C0 10.67, 10.67 0, 32 0 M0 32 C0 10.67, 10.67 0, 32 0" stroke="#000000" stroke-width="1" fill="none"></path></g><g transform="translate(421.3251953125 170) rotate(0 31.6748046875 24)"><text x="31.6748046875" y="0" font-family="Helvetica, Segoe UI Emoji" font-size="20px" fill="#000000" text-anchor="middle" style="white-space: pre;" direction="ltr" dominant-baseline="text-before-edge">gRPC</text><text x="31.6748046875" y="24" font-family="Helvetica, Segoe UI Emoji" font-size="20px" fill="#000000" text-anchor="middle" style="white-space: pre;" direction="ltr" dominant-baseline="text-before-edge">Cluster</text></g><g stroke-linecap="round"><g transform="translate(177 199) rotate(0 93.5 -0.5)"><path d="M0 0 C31.17 -0.17, 155.83 -0.83, 187 -1 M0 0 C31.17 -0.17, 155.83 -0.83, 187 -1" stroke="#000000" stroke-width="1" fill="none"></path></g><g transform="translate(177 199) rotate(0 93.5 -0.5)"><path d="M28.14 -10.41 C20.94 -7.75, 13.75 -5.09, 0 0 M28.14 -10.41 C22.31 -8.25, 16.48 -6.1, 0 0" stroke="#000000" stroke-width="1" fill="none"></path></g><g transform="translate(177 199) rotate(0 93.5 -0.5)"><path d="M28.25 10.11 C21.02 7.53, 13.8 4.94, 0 0 M28.25 10.11 C22.39 8.01, 16.54 5.92, 0 0" stroke="#000000" stroke-width="1" fill="none"></path></g><g transform="translate(177 199) rotate(0 93.5 -0.5)"><path d="M158.86 9.41 C166.06 6.75, 173.25 4.09, 187 -1 M158.86 9.41 C164.69 7.25, 170.52 5.1, 187 -1" stroke="#000000" stroke-width="1" fill="none"></path></g><g transform="translate(177 199) rotate(0 93.5 -0.5)"><path d="M158.75 -11.11 C165.98 -8.53, 173.2 -5.94, 187 -1 M158.75 -11.11 C164.61 -9.01, 170.46 -6.92, 187 -1" stroke="#000000" stroke-width="1" fill="none"></path></g></g><mask></mask><g stroke-linecap="round" transform="translate(734 10) rotate(0 79 183)"><path d="M32 0 M32 0 C58.09 0, 84.18 0, 126 0 M32 0 C63.1 0, 94.2 0, 126 0 M126 0 C147.33 0, 158 10.67, 158 32 M126 0 C147.33 0, 158 10.67, 158 32 M158 32 C158 125.96, 158 219.93, 158 334 M158 32 C158 111.83, 158 191.65, 158 334 M158 334 C158 355.33, 147.33 366, 126 366 M158 334 C158 355.33, 147.33 366, 126 366 M126 366 C107 366, 88 366, 32 366 M126 366 C89.49 366, 52.97 366, 32 366 M32 366 C10.67 366, 0 355.33, 0 334 M32 366 C10.67 366, 0 355.33, 0 334 M0 334 C0 256.13, 0 178.26, 0 32 M0 334 C0 270.29, 0 206.58, 0 32 M0 32 C0 10.67, 10.67 0, 32 0 M0 32 C0 10.67, 10.67 0, 32 0" stroke="#000000" stroke-width="1" fill="none"></path></g><g transform="translate(774.09375 181) rotate(0 38.90625 12)"><text x="38.90625" y="0" font-family="Helvetica, Segoe UI Emoji" font-size="20px" fill="#000000" text-anchor="middle" style="white-space: pre;" direction="ltr" dominant-baseline="text-before-edge">Arweave</text></g><g stroke-linecap="round"><g transform="translate(540.5 197.7671372959768) rotate(0 89.75 -1.6106320206844202)"><path d="M0 0 C29.92 -0.54, 149.58 -2.68, 179.5 -3.22 M0 0 C29.92 -0.54, 149.58 -2.68, 179.5 -3.22" stroke="#000000" stroke-width="1" fill="none"></path></g><g transform="translate(540.5 197.7671372959768) rotate(0 89.75 -1.6106320206844202)"><path d="M28 -10.76 C18.86 -7.25, 9.73 -3.74, 0 0 M28 -10.76 C21.02 -8.08, 14.04 -5.4, 0 0" stroke="#000000" stroke-width="1" fill="none"></path></g><g transform="translate(540.5 197.7671372959768) rotate(0 89.75 -1.6106320206844202)"><path d="M28.37 9.75 C19.11 6.57, 9.86 3.39, 0 0 M28.37 9.75 C21.3 7.32, 14.23 4.89, 0 0" stroke="#000000" stroke-width="1" fill="none"></path></g><g transform="translate(540.5 197.7671372959768) rotate(0 89.75 -1.6106320206844202)"><path d="M151.5 7.54 C160.64 4.03, 169.77 0.52, 179.5 -3.22 M151.5 7.54 C158.48 4.86, 165.46 2.18, 179.5 -3.22" stroke="#000000" stroke-width="1" fill="none"></path></g><g transform="translate(540.5 197.7671372959768) rotate(0 89.75 -1.6106320206844202)"><path d="M151.13 -12.97 C160.39 -9.79, 169.64 -6.61, 179.5 -3.22 M151.13 -12.97 C158.2 -10.54, 165.27 -8.11, 179.5 -3.22" stroke="#000000" stroke-width="1" fill="none"></path></g></g><mask></mask></svg>